<svg width="100%" height="734" viewBox="0 0 961 734" fill="none" xmlns="http://www.w3.org/2000/svg">
<path fill-rule="evenodd" clip-rule="evenodd" d="M960.09 135V542.022L822.204 618.81C778.123 643.359 726.392 650.339 677.381 638.352L133.09 505.229L133.09 135H960.09Z" fill="url(#paint0_linear)"/>
<g filter="url(#filter0_d)">
<path fill-rule="evenodd" clip-rule="evenodd" d="M529.084 324.279C540.645 283.948 517.34 241.873 477.019 230.28L130.989 130.789L130.949 527.141L372.095 596.219C412.436 607.775 454.504 584.448 466.067 544.109L529.084 324.279Z" fill="#4250BF"/>
</g>
<g filter="url(#filter1_d)">
<path fill-rule="evenodd" clip-rule="evenodd" d="M128.09 95V293.238L679.791 440.057C720.003 450.758 761.344 427.132 772.536 387.053L854.09 95L128.09 95Z" fill="#3947B6"/>
</g>
<defs>
<filter id="filter0_d" x="0.949219" y="4.78955" width="661.097" height="728.388" filterUnits="userSpaceOnUse" color-interpolation-filters="sRGB">
<feFlood flood-opacity="0" result="BackgroundImageFix"/>
<feColorMatrix in="SourceAlpha" type="matrix" values="0 0 0 0 0 0 0 0 0 0 0 0 0 0 0 0 0 0 127 0"/>
<feOffset dy="4"/>
<feGaussianBlur stdDeviation="65"/>
<feColorMatrix type="matrix" values="0 0 0 0 0.14902 0 0 0 0 0.2 0 0 0 0 0.588235 0 0 0 1 0"/>
<feBlend mode="normal" in2="BackgroundImageFix" result="effect1_dropShadow"/>
<feBlend mode="normal" in="SourceGraphic" in2="effect1_dropShadow" result="shape"/>
</filter>
<filter id="filter1_d" x="22.0901" y="0" width="938" height="559.631" filterUnits="userSpaceOnUse" color-interpolation-filters="sRGB">
<feFlood flood-opacity="0" result="BackgroundImageFix"/>
<feColorMatrix in="SourceAlpha" type="matrix" values="0 0 0 0 0 0 0 0 0 0 0 0 0 0 0 0 0 0 127 0"/>
<feOffset dy="11"/>
<feGaussianBlur stdDeviation="53"/>
<feColorMatrix type="matrix" values="0 0 0 0 0.164706 0 0 0 0 0.219608 0 0 0 0 0.615686 0 0 0 1 0"/>
<feBlend mode="normal" in2="BackgroundImageFix" result="effect1_dropShadow"/>
<feBlend mode="normal" in="SourceGraphic" in2="effect1_dropShadow" result="shape"/>
</filter>
<linearGradient id="paint0_linear" x1="477.625" y1="460.859" x2="969.434" y2="401.7" gradientUnits="userSpaceOnUse">
<stop stop-color="#3847B5"/>
<stop offset="1" stop-color="#253194"/>
</linearGradient>
</defs>
</svg>
